<svg xmlns="http://www.w3.org/2000/svg" viewBox="0 0 64 64" aria-hidden="true">
  <defs>
    <linearGradient id="danceA" x1="12" y1="10" x2="54" y2="58" gradientUnits="userSpaceOnUse">
      <stop stop-color="#e58aa6"/>
      <stop offset="1" stop-color="#e6c178"/>
    </linearGradient>
    <linearGradient id="danceB" x1="22" y1="12" x2="42" y2="50" gradientUnits="userSpaceOnUse">
      <stop stop-color="#fff7fb"/>
      <stop offset="1" stop-color="#f4b8c8"/>
    </linearGradient>
  </defs>
  <path fill="url(#danceA)" d="M34 7a7 7 0 1 1-7 7 7 7 0 0 1 7-7Zm-4.2 16.5 8.4-.1 6.6 8.8a3 3 0 0 1-.8 4.3 3.2 3.2 0 0 1-4.3-.8l-3.6-4.9-1 9.1 8.4 9.2a3.4 3.4 0 0 1-.2 4.8 3.3 3.3 0 0 1-4.8-.2l-9.6-10.4a4.2 4.2 0 0 1-1.1-3.4l.8-6.5-3.8 3.8a3 3 0 0 1-4.3 0 3.1 3.1 0 0 1 0-4.3l6.8-6.8a4.9 4.9 0 0 1 2.5-1.4Z"/>
  <path fill="url(#danceB)" d="M21.2 42.8a3.1 3.1 0 0 1 4.1-1.5l5.4 2.5-2.9 6.8-5-2.3a3.2 3.2 0 0 1-1.6-5.5Z"/>
  <path fill="#fff1c9" d="M14 17.4c5.7-3.4 12-4.7 19-3.7l-.7 4.2c-6-1-11.4.1-16.2 3.1L14 17.4Zm31.5-3.2c3.3 1.6 6.1 3.9 8.5 6.9l-3.4 2.6a25 25 0 0 0-6.9-5.6l1.8-3.9Z" opacity=".86"/>
  <path fill="#7b3b55" d="M48.4 41.5a2 2 0 1 1-2 2 2 2 0 0 1 2-2Zm4.9-7.8a1.6 1.6 0 1 1-1.6 1.6 1.6 1.6 0 0 1 1.6-1.6ZM13.2 29a1.7 1.7 0 1 1-1.7 1.7 1.7 1.7 0 0 1 1.7-1.7Z" opacity=".65"/>
</svg>
