<svg xmlns="http://www.w3.org/2000/svg" viewBox="0 0 96 96" fill="none">
  <rect width="96" height="96" rx="24" fill="#F4F8FF"/>
  <path d="M48 16l25.981 15v30L48 76 22.019 61V31L48 16z" fill="#111827"/>
  <path d="M48 27l16.454 9.5v19L48 65l-16.454-9.5v-19L48 27z" fill="#7DD3FC"/>
  <path d="M48 34l10.392 6v12L48 58l-10.392-6V40L48 34z" fill="#111827"/>
  <circle cx="48" cy="46" r="5" fill="#F8FAFC"/>
  <path d="M48 8v8M48 80v8M8 48h8M80 48h8M18.302 18.302l5.657 5.657M72.041 72.041l5.657 5.657M77.698 18.302l-5.657 5.657M23.959 72.041l-5.657 5.657" stroke="#7DD3FC" stroke-width="4" stroke-linecap="round"/>
</svg>
