<svg t="1782136382481" class="icon" viewBox="0 0 1024 1024" version="1.1" xmlns="http://www.w3.org/2000/svg" p-id="11941" width="200" height="200"><path d="M857.10385 897.92477H154.117035c-18.739692 0-33.957225-15.217533-33.957226-34.002382v-342.326762c0-18.784848 15.217533-34.002381 33.957226-34.002382s33.957225 15.217533 33.957225 34.002382v308.324381h635.027208v-635.794858h-307.917978c-18.739692 0-33.957225-15.217533-33.957226-34.002381s15.217533-34.002381 33.957226-34.002382h341.92036c18.739692 0 33.957225 15.217533 33.957225 34.002382v703.844776c0 18.739692-15.217533 33.957225-33.957225 33.957226z" p-id="11942"></path><path d="M418.414429 298.706178c-7.224942 4.786524-17.023769 2.664197-21.539357-4.741368-10.340698-16.978613-24.835737-43.214182-67.146801-85.525246-72.294572-72.384883-153.575164-38.472814-203.87882-3.386691-12.417868 8.66993-6.231512 28.132116 8.895709 27.996649 32.647705-0.316091 75.861886 10.882568 120.611369 55.677206 23.751995 23.797151 41.091855 52.245359 49.852096 68.230541 3.83825 6.999162 1.625612 15.714248-5.012303 20.139525L234.810601 420.356132c-10.521321 6.999162-8.579618 22.984345 3.29638 27.274154l232.914054 83.719011c9.663359 3.477003 19.913745-3.341535 20.500771-13.591922l14.04348-247.363937c0.722494-12.643648-13.230674-20.681395-23.797151-13.682233l-63.353706 41.994973z" p-id="11943"></path></svg>